<svg xmlns="http://www.w3.org/2000/svg" viewBox="0 0 395.67 84.68"><defs><style>.cls-1{fill:#0d0c0d;}</style></defs><g id="Слой_2" data-name="Слой 2"><g id="Слой_1-2" data-name="Слой 1"><path class="cls-1" d="M189.47,56.35c0-.58-.36-.87-1.1-.87q-3.47,0-3.46,2.75a2.15,2.15,0,0,0,.31,1.42,4.9,4.9,0,0,0,2.72-1.1A3,3,0,0,0,189.47,56.35Z"/><path class="cls-1" d="M224.26,55.48q-3.47,0-3.47,2.75a2.14,2.14,0,0,0,.32,1.42,4.87,4.87,0,0,0,2.71-1.1c1-.73,1.54-1.47,1.54-2.2S225,55.48,224.26,55.48Z"/><path class="cls-1" d="M211,78.22a.56.56,0,0,1-.48-.23,2.1,2.1,0,0,1-.23-.48c0-.83,1.33-2.87,4-6.09s4-4.9,4-5v-.16a2.6,2.6,0,0,0-.94-.16c-1.47,0-3.65.94-6.53,2.8a18.35,18.35,0,0,0-4.67,3.86l-.76.58a7.24,7.24,0,0,1-4.17,1.81c-1.16,0-1.79-.42-1.89-1.27a15.5,15.5,0,0,0,3.46-3c1.36-1.48,2.05-2.78,2.05-3.89,0-.74-.32-1.11-1-1.11q-1.72,0-3.54,2.83a13,13,0,0,0-1.81,4.57,27.71,27.71,0,0,1-5,3,35.14,35.14,0,0,1-5.54,2.32q7.23-6.42,7.24-10.46a2,2,0,0,0-2.21-2.21c-1.26,0-3.34,1.12-6.25,3.38a22.56,22.56,0,0,0-4.2,3.76c-.68.53-1.5,1.2-2.45,2q-3.69,3.18-5,3.18a.55.55,0,0,1-.48-.23,1.8,1.8,0,0,1-.24-.48c0-.83,1.34-2.87,4-6.09s4-4.9,4-5v-.16a2.64,2.64,0,0,0-.94-.16c-1.47,0-3.65.94-6.54,2.8s-4.59,3.39-5.11,4.6l.08.16a1.51,1.51,0,0,0,.78-.32c1.26-1,2.21-1.86,2.84-2.44,1.68-1.31,2.93-2.25,3.77-2.83v.08A27.25,27.25,0,0,0,173,72.79c-1.84,2.36-2.76,4.15-2.76,5.35s.79,1.81,2.36,1.81q2.69,0,6.85-3.22a36.85,36.85,0,0,0,5-4.36q4.22-3.84,6.5-4.77l.47.16.24.39c-.06.89-1.36,2.85-3.9,5.86S184,78.7,184,79c0,.73.4,1.1,1.18,1.1q3.71,0,13.54-5.74c.21.94,1,1.41,2.44,1.41a7.53,7.53,0,0,0,5.46-2.41l0,0c1.26-1,2.2-1.86,2.83-2.44q2.52-2,3.78-2.83v.08a26.87,26.87,0,0,0-4.33,4.64c-1.84,2.36-2.75,4.15-2.75,5.35s.78,1.81,2.36,1.81q2.67,0,6.84-3.22,5.35-4.17,5.35-5l.08-.08c-.68.16-2.26,1.3-4.71,3.43S211.94,78.22,211,78.22Z"/><path class="cls-1" d="M395.53,37.87a21.13,21.13,0,0,0-5.13-11.53A25,25,0,0,0,380,19.42a33.4,33.4,0,0,0-6-1.52,26.49,26.49,0,0,0-6.16-.15,36.28,36.28,0,0,0-11.52,3.3,99.13,99.13,0,0,0-10.17,5.55c-6.48,4-12.63,8.17-18.74,12.11-1.84,1.19-3.67,2.35-5.5,3.51a10.05,10.05,0,0,0-2.56,1.35l-1.71,1.1c-4.81-4.39-9.29-8.93-13.74-13.24a173.09,173.09,0,0,0-13.47-12.06,71.58,71.58,0,0,0-14.27-9L261.3,6.13l-3.62-.22-.89,0-.88,0L254.17,6a48,48,0,0,0-6.63.73,66.13,66.13,0,0,0-20.38,7.57c-2.65,1.36-4.84,2.84-6.76,4.06-.82.55-1.59,1-2.28,1.52-17.61,11.29-31.31,24.31-49.58,44.29q-14.25,15.57-16,17.31Q150,84,148.79,84q-1,0-1-1.5,0-5,25-37.14,8.1-10.39,17.94-21.17,7.17-7.87,8.34-8.89,3.94-3,8-6,6.38-5,6.38-6.38c0-.42-.27-.63-.79-.63q-2.76,0-16.37,13-28.73,27.47-57.68,27.46a33.12,33.12,0,0,1-8.72-1.16c4.77-1.12,8.69-2.08,9.57-2.29,7.42-1.75,15.09-3.21,22.7-8.2q12.6-8.25,12.59-19a10.35,10.35,0,0,0-5-9.37Q165.5,0,158.89,0q-13.3,0-26.37,7.4l-.86.31q-13.3,7.88-26.29,23l-.71.94q-3.72,4.32-9.08,10.84-15-4.17-15-16.52A18.44,18.44,0,0,1,83,16.69V15.46A18.93,18.93,0,0,0,79.8,26,17.15,17.15,0,0,0,86,39.8a24.48,24.48,0,0,1-4.61-3.51A18.25,18.25,0,0,1,75.9,25.36a14.17,14.17,0,0,1,.55-5.68A14.66,14.66,0,0,1,79,15a19.67,19.67,0,0,1,7.84-5.62,32.31,32.31,0,0,1,7.92-2.12c4.9-.71,4.91-.75,0-.08a33.43,33.43,0,0,0-8,2.08,19.81,19.81,0,0,0-8,5.6,14.94,14.94,0,0,0-2.63,4.79,14.51,14.51,0,0,0-.63,5.79,18.75,18.75,0,0,0,5.51,11.24,25.23,25.23,0,0,0,5.45,4.13,29,29,0,0,0,2.81,1.34,30.76,30.76,0,0,0,5,2.28Q75.7,66.1,58.55,75.08,46,70.75,38.64,69A86.34,86.34,0,0,0,18.1,66.34,36.39,36.39,0,0,0,6.93,67.83Q0,70,0,75.15,0,80.51,8.42,83a45.51,45.51,0,0,0,12.83,1.66,90.68,90.68,0,0,0,37.14-7.56q9.92,3.85,13.3,5a48.23,48.23,0,0,0,13.93,2.36q11.49,0,21.64-8.74l2.34-2A6.06,6.06,0,0,0,111,72.48H111a7.61,7.61,0,0,0-2.21,4.85c0,1.75,1,2.62,3,2.62q3.95,0,8.9-4.56h.08A3.81,3.81,0,0,0,119.69,78c0,1.28.76,1.92,2.29,1.92,1.89,0,4.14-1,6.76-3.17,3.62-2.91,5.43-4.64,5.43-5.17l-.07-.08A43.15,43.15,0,0,0,130,74.88c-2.54,2.18-4.36,3.26-5.47,3.26a1.84,1.84,0,0,1-.55-.07l-.15-.4c0-1.06,1.33-3.21,4-6.46a53,53,0,0,0,4-5.11c0-.15-.34-.23-1-.23q-2.21,0-4.88,3.07h-.08a3.6,3.6,0,0,0,.16-1c0-1.36-.92-2-2.75-2s-4.29.82-7.36,2.48a24.48,24.48,0,0,0-6.16,4.37q-2.18,1.45-4,2.83a34.12,34.12,0,0,1-19.6,5.66q-10.15,0-25.5-5.35Q80,66.65,98.6,45.49a40.56,40.56,0,0,0,6.93.63,40.09,40.09,0,0,0,10.73-1.5c3.8-.79,8.41-1.84,12.52-2.8,2.05,2,4.56,3,10.64,3q24.09,0,51.71-23.77v.08q-18.58,17.7-26.76,28.17-18,23.15-18,32.58c0,1.89.76,2.84,2.28,2.84q1.65,0,4.64-2.84,18.18-18,27.15-27.07C199.47,36,219.6,20.17,234.18,13.39A61.26,61.26,0,0,1,248,9.48a46.87,46.87,0,0,1,6.26-.54l1.64,0,.82,0,.83.07,3.37.27a46.76,46.76,0,0,1,13.81,4.18,69.94,69.94,0,0,1,13.53,8.69c4.41,3.53,8.73,7.58,13.14,11.89,4.19,4.09,8.48,8.41,13.11,12.68q-3,1.88-5.92,3.67-8.64,5-17.09,9.43c-2.93,1.5-5.78,3-8.72,4.22a60.55,60.55,0,0,1-8.86,3,47.2,47.2,0,0,1-12.49,1.44c-.62-.06-1.22-.14-1.83-.24a29,29,0,0,1-6.73-1.92,24.66,24.66,0,0,1-5.73-3.47,18.22,18.22,0,0,1-6.48-10.38,14.2,14.2,0,0,1,0-5.7,14.59,14.59,0,0,1,2.09-4.95,19.66,19.66,0,0,1,7.3-6.31,32.59,32.59,0,0,1,7.69-2.84c4.82-1.15,4.82-1.19,0-.07A33.34,33.34,0,0,0,250,35.28a19.84,19.84,0,0,0-7.42,6.31,14.79,14.79,0,0,0-2.18,5,14.46,14.46,0,0,0-.09,5.83,18.68,18.68,0,0,0,6.51,10.68,24.69,24.69,0,0,0,5.81,3.61,26.45,26.45,0,0,0,2.66,1,33.39,33.39,0,0,1-7-2.09,29.22,29.22,0,0,1-6.82-4.12,21.71,21.71,0,0,1-7.71-12.35,17,17,0,0,1,0-6.78,17.52,17.52,0,0,1,2.49-5.89A23.37,23.37,0,0,1,245,29a38.62,38.62,0,0,1,9.14-3.38,65,65,0,0,1,13.42-1.69c1.55-.06,2.73,0,3.53,0h0c-.8,0-2,0-3.53,0a66.79,66.79,0,0,0-13.44,1.61,39.49,39.49,0,0,0-9.2,3.33,23.6,23.6,0,0,0-8.83,7.5,18,18,0,0,0-2.59,6,17.53,17.53,0,0,0-.11,6.93A22.29,22.29,0,0,0,241.16,62a29.62,29.62,0,0,0,6.91,4.29,34.84,34.84,0,0,0,8.15,2.45,40.47,40.47,0,0,0,7.9.53,40.85,40.85,0,0,0,10.47-1.09,53.83,53.83,0,0,0,7.62-2.42c2.53-1,5-2.26,7.45-3.49q5.1-2.56,10.3-5.4c3.34-1.78,6.7-3.61,10.09-5.54,1.93-1.1,3.88-2.23,5.83-3.38a93,93,0,0,0,15.86,11.91l2.39,1.27,1.2.62,1.25.54,2.52,1.09c.87.31,1.75.58,2.63.87a74.76,74.76,0,0,0,10.79,2.47c.91.17,1.85.22,2.79.34s1.86.24,2.81.25a51.94,51.94,0,0,0,5.72,0,51.42,51.42,0,0,0,5.77-.56l2.87-.6c1-.19,1.89-.54,2.84-.8a33,33,0,0,0,10.58-5.59,26.71,26.71,0,0,0,7.61-9.59A23.6,23.6,0,0,0,395.53,37.87ZM21.33,83.73a38.73,38.73,0,0,1-12-1.82q-7.95-2.44-7.94-7.35,0-7.52,16.76-7.51,15.74,0,38.32,9.09A80.58,80.58,0,0,1,21.33,83.73ZM117,71.38q4.76-4.57,6.81-4.57c1,0,1.49.47,1.49,1.42,0,1.36-1.62,3.46-4.88,6.29s-5.64,4.25-7.16,4.25c-.68,0-1-.31-1-.94C112.22,76.57,113.8,74.42,117,71.38ZM106.24,43.91a48.19,48.19,0,0,1-6.22-.39q4.33-4.92,9.13-11l.79-1.1q12-14.71,22.9-22c.13-.08.43-.29.78-.49a49.18,49.18,0,0,1,20.13-7.59h.08a20.24,20.24,0,0,1,4.9.63,16.94,16.94,0,0,1,4.37,1.82,12.87,12.87,0,0,1,5.62,6.56,10,10,0,0,1,.58,4,10.25,10.25,0,0,1-.94,3.68,13.78,13.78,0,0,1-4.43,5.17,23,23,0,0,1-5.07,2.8,39.43,39.43,0,0,1-7.72,2.18c-.9.17-1.6.27-2.07.33l-.7.1.7-.1c.47-.06,1.17-.15,2.07-.32A39.21,39.21,0,0,0,158.88,26,23.24,23.24,0,0,0,164,23.2,14.05,14.05,0,0,0,168.5,18a10.12,10.12,0,0,0,.45-7.8,13.2,13.2,0,0,0-5.68-6.77,17.55,17.55,0,0,0-4.43-1.91,19.37,19.37,0,0,0-2.43-.5c.85-.05,1.7-.09,2.55-.09a18.57,18.57,0,0,1,10.16,2.52,9.82,9.82,0,0,1,4.72,8.87q0,10.29-13.54,18.06c-7.92,4.61-16.25,6.16-23.39,7.89-.42.1-1.61.45-3.17.9C129.49,40.4,110.38,43.91,106.24,43.91Zm284.52,5a23.6,23.6,0,0,1-6.82,8.4,29.82,29.82,0,0,1-9.6,5c-.87.24-1.72.55-2.61.72l-2.65.53a46.32,46.32,0,0,1-5.38.47,50.42,50.42,0,0,1-5.36-.07c-.9,0-1.78-.18-2.67-.26s-1.77-.17-2.64-.34a71,71,0,0,1-10.24-2.41c-.81-.27-1.63-.52-2.43-.81L338,59l-1.16-.5-1.13-.6-2.23-1.19A88.16,88.16,0,0,1,319.1,46q4.63-2.77,9.3-5.71c6.18-3.86,12.4-8,18.86-11.82a102.48,102.48,0,0,1,9.13-4.88,34.66,34.66,0,0,1,10.39-2.22,28.88,28.88,0,0,1,6.86.5,23.9,23.9,0,0,1,6.2,2.19,17.92,17.92,0,0,1,8.33,8.67,14.08,14.08,0,0,1,1.12,5.49,14.52,14.52,0,0,1-1,5.18,19.38,19.38,0,0,1-5.76,7.54,32,32,0,0,1-6.82,4.28,54,54,0,0,1-10.56,3.63c-1.25.31-2.2.5-2.85.63l-1,.19,1-.19c.65-.13,1.61-.31,2.85-.62a54.88,54.88,0,0,0,10.59-3.58A32.49,32.49,0,0,0,382.6,51a19.56,19.56,0,0,0,5.87-7.56,14.16,14.16,0,0,0,0-10.88,18.43,18.43,0,0,0-8.41-9,24.71,24.71,0,0,0-6.32-2.31,28.93,28.93,0,0,0-7-.6,30.59,30.59,0,0,0-3.43.32,27.08,27.08,0,0,1,4.73-.83,24.18,24.18,0,0,1,5.57.21,30.21,30.21,0,0,1,5.46,1.47,22.46,22.46,0,0,1,9.24,6.26,18.36,18.36,0,0,1,4.33,10A20.53,20.53,0,0,1,390.76,48.89Z"/></g></g></svg>