<svg id="Слой_1" data-name="Слой 1" xmlns="http://www.w3.org/2000/svg" viewBox="0 0 414.39 174.1"><defs><style>.cls-1{fill:#0d0c0d;}.cls-2{font-size:21.01px;fill:#3a3a3e;font-family:PFBeauSansPro-Light, PF BeauSans Pro;letter-spacing:0.61em;}.cls-3{letter-spacing:0.53em;}.cls-4{letter-spacing:0.63em;}.cls-5{letter-spacing:0.59em;}.cls-6{letter-spacing:0.6em;}.cls-7{letter-spacing:0.6em;}.cls-8{letter-spacing:0.58em;}.cls-9{letter-spacing:0.59em;}.cls-10{letter-spacing:0.62em;}.cls-11{letter-spacing:0.63em;}.cls-12{letter-spacing:0.6em;}.cls-13{letter-spacing:0.6em;}</style></defs><title>logo_web</title><path class="cls-1" d="M198.83,84.17c0-.58-.37-.87-1.1-.87q-3.47,0-3.46,2.76a2.13,2.13,0,0,0,.31,1.41,4.85,4.85,0,0,0,2.72-1.1A3,3,0,0,0,198.83,84.17Z"/><path class="cls-1" d="M233.61,83.3q-3.47,0-3.46,2.76a2.12,2.12,0,0,0,.32,1.41,4.83,4.83,0,0,0,2.71-1.1,3,3,0,0,0,1.53-2.2C234.71,83.59,234.35,83.3,233.61,83.3Z"/><path class="cls-1" d="M220.4,106a.54.54,0,0,1-.48-.23,3,3,0,0,1-.24-.47c0-.84,1.34-2.88,4-6.1s4-4.9,4-5v-.16a2.64,2.64,0,0,0-.94-.16c-1.47,0-3.65.94-6.54,2.8a18.44,18.44,0,0,0-4.66,3.86l-.76.58a7.24,7.24,0,0,1-4.18,1.81c-1.15,0-1.78-.42-1.88-1.27a15.46,15.46,0,0,0,3.46-3c1.36-1.48,2-2.78,2-3.89,0-.74-.31-1.11-.94-1.11q-1.73,0-3.54,2.83a13,13,0,0,0-1.81,4.57,28.08,28.08,0,0,1-5,3,35.56,35.56,0,0,1-5.55,2.32q7.25-6.42,7.24-10.45a2,2,0,0,0-2.2-2.22c-1.26,0-3.34,1.13-6.26,3.38a21.92,21.92,0,0,0-4.19,3.77c-.69.52-1.5,1.19-2.45,2q-3.69,3.18-5,3.18a.51.51,0,0,1-.47-.23,1.9,1.9,0,0,1-.24-.47c0-.84,1.34-2.88,4-6.1s4-4.9,4-5v-.16a2.7,2.7,0,0,0-1-.16c-1.47,0-3.64.94-6.53,2.8s-4.59,3.4-5.11,4.6l.07.16a1.54,1.54,0,0,0,.79-.32c1.26-1,2.2-1.86,2.83-2.43,1.68-1.32,2.94-2.26,3.78-2.84V96a27.26,27.26,0,0,0-4.33,4.64q-2.74,3.54-2.75,5.36c0,1.2.79,1.81,2.36,1.81q2.67,0,6.85-3.23a35.9,35.9,0,0,0,5-4.36q4.22-3.84,6.51-4.77l.47.16L201,96c-.05.89-1.35,2.85-3.89,5.86s-3.82,4.69-3.82,5c0,.73.39,1.1,1.18,1.1q3.7,0,13.54-5.74c.21.94,1,1.41,2.44,1.41a7.53,7.53,0,0,0,5.46-2.41l.05,0c1.25-1,2.2-1.86,2.83-2.43,1.68-1.32,2.94-2.26,3.78-2.84V96a26.87,26.87,0,0,0-4.33,4.64q-2.76,3.54-2.76,5.36c0,1.2.79,1.81,2.36,1.81q2.69,0,6.85-3.23,5.35-4.17,5.35-5l.08-.08q-1,.24-4.72,3.43C223,105,221.3,106,220.4,106Z"/><path class="cls-1" d="M404.88,65.69a21.12,21.12,0,0,0-5.12-11.53,25,25,0,0,0-10.42-6.92,34.15,34.15,0,0,0-6-1.52,26.46,26.46,0,0,0-6.16-.15,36.29,36.29,0,0,0-11.51,3.3,99.13,99.13,0,0,0-10.17,5.55c-6.49,4-12.63,8.17-18.75,12.11-1.84,1.19-3.66,2.35-5.49,3.51a9.73,9.73,0,0,0-2.56,1.35L327,72.49c-4.81-4.39-9.3-8.93-13.74-13.24a174.93,174.93,0,0,0-13.47-12.06,71.64,71.64,0,0,0-14.28-9L270.65,34,267,33.73l-.88,0-.89,0-1.74.08a49.47,49.47,0,0,0-6.62.73,66.28,66.28,0,0,0-20.38,7.57,78,78,0,0,0-6.76,4.07c-.82.54-1.59,1-2.29,1.52C209.87,59,196.17,72,177.9,92q-14.25,15.58-16,17.31-2.52,2.52-3.77,2.52c-.69,0-1-.5-1-1.5q0-5,25-37.14,8.1-10.4,17.94-21.17,7.16-7.86,8.34-8.89,3.93-3,7.95-6,6.38-5,6.37-6.38,0-.63-.78-.63-2.76,0-16.37,13-28.72,27.46-57.68,27.46a33,33,0,0,1-8.72-1.16c4.77-1.12,8.68-2.08,9.57-2.29,7.42-1.75,15.09-3.21,22.7-8.19q12.59-8.26,12.59-19a10.32,10.32,0,0,0-5-9.36q-4.17-2.76-10.78-2.76-13.29,0-26.36,7.4l-.87.31q-13.29,7.88-26.28,23l-.71.94q-3.72,4.32-9.08,10.84-15-4.17-15-16.52a18.44,18.44,0,0,1,2.37-9.26V43.28a19,19,0,0,0-3.16,10.51,17.18,17.18,0,0,0,6.22,13.83,24.28,24.28,0,0,1-4.61-3.51,18.31,18.31,0,0,1-5.51-10.93,14.35,14.35,0,0,1,.56-5.68,14.64,14.64,0,0,1,2.53-4.73,19.73,19.73,0,0,1,7.85-5.62A32.65,32.65,0,0,1,104.11,35c4.9-.71,4.9-.75,0-.07a32.91,32.91,0,0,0-8,2.07,19.91,19.91,0,0,0-8,5.6,14.94,14.94,0,0,0-2.63,4.79,14.69,14.69,0,0,0-.62,5.79,18.71,18.71,0,0,0,5.5,11.24,25.29,25.29,0,0,0,5.46,4.13,30.09,30.09,0,0,0,2.8,1.35,32,32,0,0,0,5,2.27q-18.64,21.72-35.8,30.7Q55.39,98.57,48,96.84a86.41,86.41,0,0,0-20.54-2.68,36.13,36.13,0,0,0-11.18,1.5Q9.36,97.78,9.36,103q0,5.36,8.42,7.87a45.46,45.46,0,0,0,12.83,1.66,90.75,90.75,0,0,0,37.14-7.56q9.91,3.86,13.3,5A48.18,48.18,0,0,0,95,112.26q11.49,0,21.64-8.73c.94-.8,1.71-1.47,2.34-2a6,6,0,0,0,1.36-1.21h.08a7.61,7.61,0,0,0-2.21,4.85c0,1.75,1,2.63,3,2.63q3.93,0,8.89-4.57h.08a3.84,3.84,0,0,0-1.1,2.64c0,1.28.76,1.93,2.28,1.93q2.83,0,6.77-3.18c3.62-2.91,5.43-4.64,5.43-5.17l-.08-.08a43.92,43.92,0,0,0-4.13,3.35c-2.54,2.18-4.37,3.27-5.47,3.27a1.82,1.82,0,0,1-.55-.08l-.16-.4q0-1.59,4-6.46a57.78,57.78,0,0,0,4-5.1q0-.24-1-.24-2.21,0-4.88,3.07h-.08a4,4,0,0,0,.16-1q0-2-2.76-2c-1.83,0-4.29.83-7.36,2.48a24.58,24.58,0,0,0-6.15,4.37q-2.19,1.45-4,2.83A34,34,0,0,1,95.53,109q-10.16,0-25.5-5.35Q89.31,94.47,108,73.31a39,39,0,0,0,17.65-.86c3.81-.8,8.42-1.85,12.53-2.81,2.05,2,4.56,3,10.64,3q24.08,0,51.7-23.77v.08q-18.57,17.72-26.75,28.17-18,23.15-18,32.58c0,1.89.76,2.84,2.28,2.84q1.65,0,4.64-2.84,18.18-18,27.15-27.07C208.83,63.81,229,48,243.53,41.21a61.35,61.35,0,0,1,13.84-3.91,46.73,46.73,0,0,1,6.26-.54l1.63,0,.83,0,.83.07,3.37.27a46.76,46.76,0,0,1,13.81,4.18,69.54,69.54,0,0,1,13.53,8.7c4.41,3.52,8.73,7.58,13.14,11.88,4.19,4.09,8.47,8.41,13.11,12.68-2,1.25-4,2.47-5.92,3.67q-8.64,5-17.09,9.43c-2.94,1.5-5.79,3-8.72,4.22a60.67,60.67,0,0,1-8.87,3,47.16,47.16,0,0,1-12.49,1.44c-.61-.06-1.22-.14-1.82-.24A28.82,28.82,0,0,1,262.24,94a24.66,24.66,0,0,1-5.73-3.47A18.29,18.29,0,0,1,250,80.18a14.38,14.38,0,0,1,0-5.7,14.81,14.81,0,0,1,2.1-5,19.75,19.75,0,0,1,7.3-6.31,32.87,32.87,0,0,1,7.69-2.84c4.81-1.15,4.81-1.19,0-.07a33.34,33.34,0,0,0-7.73,2.79A19.87,19.87,0,0,0,252,69.41a15,15,0,0,0-2.18,5,14.82,14.82,0,0,0-.09,5.83,18.73,18.73,0,0,0,6.51,10.68A25.1,25.1,0,0,0,262,94.54a26.63,26.63,0,0,0,2.67,1,33.66,33.66,0,0,1-7-2.09,29.16,29.16,0,0,1-6.81-4.12A21.75,21.75,0,0,1,243.16,77a17.18,17.18,0,0,1,0-6.78,17.52,17.52,0,0,1,2.49-5.89,23.34,23.34,0,0,1,8.68-7.5,38.68,38.68,0,0,1,9.15-3.38,64.88,64.88,0,0,1,13.42-1.69c1.55-.06,2.73,0,3.52,0h0c-.79,0-2,0-3.52,0a66.79,66.79,0,0,0-13.44,1.61,39.49,39.49,0,0,0-9.2,3.33,23.6,23.6,0,0,0-8.83,7.5,17.59,17.59,0,0,0-2.59,6,17.34,17.34,0,0,0-.11,6.93,22.28,22.28,0,0,0,7.74,12.71,29.68,29.68,0,0,0,6.92,4.29,34.9,34.9,0,0,0,8.14,2.45A54.14,54.14,0,0,0,284,96a54.24,54.24,0,0,0,7.62-2.42c2.53-1,5-2.26,7.45-3.49q5.1-2.57,10.29-5.4,5-2.65,10.1-5.53c1.93-1.11,3.88-2.24,5.82-3.39A93.44,93.44,0,0,0,341.1,87.63l2.39,1.27,1.2.63,1.25.54,2.52,1.08c.86.31,1.75.58,2.63.87a73.62,73.62,0,0,0,10.78,2.47c.92.17,1.86.22,2.79.34s1.87.24,2.82.25a51.91,51.91,0,0,0,5.72,0,49,49,0,0,0,5.76-.56l2.88-.6c1-.19,1.89-.54,2.84-.8a33.06,33.06,0,0,0,10.58-5.59,26.63,26.63,0,0,0,7.6-9.58A23.53,23.53,0,0,0,404.88,65.69ZM30.68,111.55a38.71,38.71,0,0,1-12-1.82q-7.95-2.45-7.95-7.35,0-7.51,16.77-7.51,15.74,0,38.32,9.09A80.59,80.59,0,0,1,30.68,111.55ZM126.34,99.2c3.17-3,5.44-4.57,6.8-4.57,1,0,1.5.48,1.5,1.42q0,2-4.88,6.3t-7.16,4.24c-.68,0-1-.31-1-.94C121.58,104.39,123.16,102.24,126.34,99.2ZM115.6,71.73a48,48,0,0,1-6.22-.39q4.32-4.92,9.13-11l.78-1.1q12-14.72,22.9-22c.14-.09.43-.3.79-.5a49.13,49.13,0,0,1,20.13-7.59h.08a20.88,20.88,0,0,1,4.9.63,17.61,17.61,0,0,1,4.37,1.82,12.91,12.91,0,0,1,5.62,6.56,10,10,0,0,1,.58,4,10.46,10.46,0,0,1-.94,3.68,13.87,13.87,0,0,1-4.43,5.17,23.06,23.06,0,0,1-5.07,2.8,39.43,39.43,0,0,1-7.72,2.18c-.91.17-1.6.27-2.07.33l-.7.11.7-.11c.47-.06,1.16-.15,2.07-.32a39.75,39.75,0,0,0,7.74-2.14A23.74,23.74,0,0,0,173.35,51a14,14,0,0,0,4.51-5.19,10.39,10.39,0,0,0,1-3.72A10.11,10.11,0,0,0,178.3,38a13.13,13.13,0,0,0-5.67-6.77,17.47,17.47,0,0,0-4.44-1.91,20.73,20.73,0,0,0-2.42-.5c.85-.05,1.7-.08,2.55-.08a18.53,18.53,0,0,1,10.15,2.51,9.82,9.82,0,0,1,4.72,8.87q0,10.29-13.53,18.06c-7.92,4.61-16.26,6.16-23.39,7.89-.42.1-1.61.45-3.17.91C138.85,68.22,119.74,71.73,115.6,71.73Zm284.52,5a23.71,23.71,0,0,1-6.82,8.4,29.83,29.83,0,0,1-9.6,5c-.88.24-1.72.55-2.61.72l-2.66.53a46.15,46.15,0,0,1-5.37.47,50.64,50.64,0,0,1-5.37-.07c-.89,0-1.77-.18-2.66-.26s-1.77-.17-2.64-.33a71.19,71.19,0,0,1-10.25-2.42c-.81-.27-1.62-.52-2.42-.81s-1.56-.69-2.34-1l-1.17-.51-1.12-.6-2.24-1.19A88.51,88.51,0,0,1,328.46,73.8q4.62-2.77,9.3-5.71c6.18-3.86,12.4-8,18.86-11.82a102.3,102.3,0,0,1,9.13-4.88,34.91,34.91,0,0,1,10.38-2.22,28.92,28.92,0,0,1,6.87.5,23.9,23.9,0,0,1,6.2,2.19,18,18,0,0,1,8.33,8.67,13.9,13.9,0,0,1,.09,10.67,19.27,19.27,0,0,1-5.75,7.54A32,32,0,0,1,385.05,83a53.83,53.83,0,0,1-10.57,3.63c-1.24.31-2.2.5-2.84.63l-1,.19,1-.19c.64-.13,1.6-.31,2.85-.62a55.11,55.11,0,0,0,10.59-3.58A32.49,32.49,0,0,0,392,78.84a19.66,19.66,0,0,0,5.87-7.56A14.64,14.64,0,0,0,398.91,66a14.26,14.26,0,0,0-1.08-5.62,18.32,18.32,0,0,0-8.41-9,24.64,24.64,0,0,0-6.31-2.31,29.49,29.49,0,0,0-7-.6,31,31,0,0,0-3.44.32,27.36,27.36,0,0,1,4.74-.83,24.18,24.18,0,0,1,5.57.21,31.05,31.05,0,0,1,5.46,1.47A22.36,22.36,0,0,1,397.67,56,18.41,18.41,0,0,1,402,66,20.63,20.63,0,0,1,400.12,76.71Z"/><text class="cls-2" transform="translate(29.67 145.47)">МА<tspan class="cls-3" x="55.04" y="0">Г</tspan><tspan class="cls-4" x="77.4" y="0">А</tspan><tspan class="cls-5" x="103.39" y="0">З</tspan><tspan class="cls-6" x="127.91" y="0">И</tspan><tspan class="cls-7" x="154.85" y="0">Н </tspan><tspan class="cls-8" x="199.89" y="0">О</tspan><tspan class="cls-9" x="226.63" y="0">Д</tspan><tspan class="cls-10" x="253.87" y="0">Е</tspan><tspan class="cls-11" x="278.78" y="0">Ж</tspan><tspan class="cls-12" x="312.02" y="0">Д</tspan><tspan class="cls-13" x="339.49" y="0">Ы</tspan></text></svg>